<svg width="40" height="42" viewBox="0 0 40 42" fill="none" xmlns="http://www.w3.org/2000/svg">
<path opacity="0.4" d="M26.9731 7.00781H12.8889C8.78659 7.00781 5.46484 10.3866 5.46484 14.5218V30.3398C5.46484 34.475 8.80319 37.8537 12.8889 37.8537H26.9565C31.0589 37.8537 34.3806 34.475 34.3806 30.3398V14.5218C34.3972 10.3698 31.0589 7.00781 26.9731 7.00781Z" fill="#4BC863"/>
<path d="M23.8338 4.23047H16.0277C14.3004 4.23047 12.8887 5.64249 12.8887 7.39071V8.97083C12.8887 10.719 14.2838 12.1311 16.0111 12.1311H23.8338C25.5611 12.1311 26.9563 10.719 26.9563 8.97083V7.39071C26.9729 5.64249 25.5611 4.23047 23.8338 4.23047Z" fill="#4BC863"/>
<path d="M17.9545 29.3623C17.6389 29.3623 17.3234 29.2446 17.0742 28.9925L14.5829 26.471C14.1013 25.9835 14.1013 25.1766 14.5829 24.6892C15.0646 24.2017 15.8618 24.2017 16.3434 24.6892L17.9545 26.3197L23.7177 20.4867C24.1994 19.9992 24.9966 19.9992 25.4782 20.4867C25.9599 20.9742 25.9599 21.7811 25.4782 22.2685L18.8348 28.9925C18.6022 29.2446 18.2701 29.3623 17.9545 29.3623Z" fill="#4BC863"/>
</svg>
