<svg width="41" height="42" viewBox="0 0 41 42" fill="none" xmlns="http://www.w3.org/2000/svg">
<path opacity="0.4" d="M20.173 37.7387C29.4573 37.7387 36.9838 30.2127 36.9838 20.9289C36.9838 11.6451 29.4573 4.11914 20.173 4.11914C10.8887 4.11914 3.3623 11.6451 3.3623 20.9289C3.3623 30.2127 10.8887 37.7387 20.173 37.7387Z" fill="#38C0F0"/>
<path d="M26.4094 27.5357C26.1909 27.5357 25.9723 27.4852 25.7706 27.3507L20.5593 24.2409C19.2649 23.4677 18.3066 21.7699 18.3066 20.2738V13.3818C18.3066 12.6926 18.8782 12.1211 19.5674 12.1211C20.2567 12.1211 20.8282 12.6926 20.8282 13.3818V20.2738C20.8282 20.879 21.3326 21.7699 21.8537 22.0725L27.065 25.1823C27.6702 25.5353 27.8551 26.3085 27.5021 26.9137C27.2499 27.3171 26.8297 27.5357 26.4094 27.5357Z" fill="#38C0F0"/>
</svg>
