<svg width="40" height="42" viewBox="0 0 40 42" fill="none" xmlns="http://www.w3.org/2000/svg">
<path opacity="0.4" d="M36.1403 27.743L25.5107 8.3781C24.0824 5.77258 22.1059 4.34375 19.9302 4.34375C17.7544 4.34375 15.778 5.77258 14.3497 8.3781L3.72008 27.743C2.37477 30.214 2.22529 32.5842 3.30486 34.4501C4.38443 36.3159 6.51034 37.3413 9.3006 37.3413H30.5598C33.35 37.3413 35.4759 36.3159 36.5555 34.4501C37.6351 32.5842 37.4856 30.1972 36.1403 27.743Z" fill="#ED374C"/>
<path d="M19.9302 25.776C19.2493 25.776 18.6846 25.2044 18.6846 24.5152V16.1103C18.6846 15.4211 19.2493 14.8496 19.9302 14.8496C20.6112 14.8496 21.1759 15.4211 21.1759 16.1103V24.5152C21.1759 25.2044 20.6112 25.776 19.9302 25.776Z" fill="#ED374C"/>
<path d="M19.9304 31.2392C19.8307 31.2392 19.7145 31.2224 19.5982 31.2056C19.4986 31.1888 19.3989 31.1552 19.2993 31.1047C19.1996 31.0711 19.1 31.0207 19.0003 30.9534C18.9173 30.8862 18.8342 30.819 18.7512 30.7517C18.4522 30.4323 18.2695 29.9953 18.2695 29.5582C18.2695 29.1212 18.4522 28.6841 18.7512 28.3647C18.8342 28.2975 18.9173 28.2303 19.0003 28.163C19.1 28.0958 19.1996 28.0453 19.2993 28.0117C19.3989 27.9613 19.4986 27.9277 19.5982 27.9109C19.8141 27.8604 20.0467 27.8604 20.246 27.9109C20.3622 27.9277 20.4619 27.9613 20.5615 28.0117C20.6612 28.0453 20.7608 28.0958 20.8605 28.163C20.9435 28.2303 21.0266 28.2975 21.1096 28.3647C21.4086 28.6841 21.5913 29.1212 21.5913 29.5582C21.5913 29.9953 21.4086 30.4323 21.1096 30.7517C21.0266 30.819 20.9435 30.8862 20.8605 30.9534C20.7608 31.0207 20.6612 31.0711 20.5615 31.1047C20.4619 31.1552 20.3622 31.1888 20.246 31.2056C20.1463 31.2224 20.0301 31.2392 19.9304 31.2392Z" fill="#ED374C"/>
</svg>
