<svg width="55" height="53" viewBox="0 0 55 53" fill="none" xmlns="http://www.w3.org/2000/svg">
<rect x="0.253906" y="0.5" width="53.8865" height="52" rx="26" fill="#004D71" fill-opacity="0.1"/>
<path d="M39.5872 21.8327C39.5872 26.6193 35.7072 30.4993 30.9206 30.4993C30.6939 30.4993 30.4539 30.486 30.2273 30.4727C29.8939 26.246 26.5072 22.8593 22.2806 22.526C22.2672 22.2993 22.2539 22.0593 22.2539 21.8327C22.2539 17.046 26.1339 13.166 30.9206 13.166C35.7072 13.166 39.5872 17.046 39.5872 21.8327Z" stroke="#004D71" stroke-width="1.5" stroke-linecap="round" stroke-linejoin="round"/>
<path d="M30.2552 31.1667C30.2552 35.9533 26.3752 39.8333 21.5885 39.8333C16.8019 39.8333 12.9219 35.9533 12.9219 31.1667C12.9219 26.38 16.8019 22.5 21.5885 22.5C21.8152 22.5 22.0552 22.5133 22.2819 22.5267C26.5085 22.86 29.8952 26.2467 30.2286 30.4733C30.2419 30.7 30.2552 30.94 30.2552 31.1667Z" stroke="#004D71" stroke-width="1.5" stroke-linecap="round" stroke-linejoin="round"/>
<path d="M17.7085 13.166H14.2552C13.5219 13.166 12.9219 13.766 12.9219 14.4993V17.9527C12.9219 19.1393 14.3619 19.7393 15.2019 18.8993L18.6552 15.446C19.4819 14.606 18.8952 13.166 17.7085 13.166Z" stroke="#004D71" stroke-width="1.5" stroke-linecap="round" stroke-linejoin="round"/>
<path d="M34.8015 39.8324H38.2548C38.9882 39.8324 39.5882 39.2324 39.5882 38.499V35.0457C39.5882 33.859 38.1482 33.259 37.3082 34.099L33.8548 37.5524C33.0282 38.3924 33.6148 39.8324 34.8015 39.8324Z" stroke="#004D71" stroke-width="1.5" stroke-linecap="round" stroke-linejoin="round"/>
</svg>
