<svg width="39" height="41" viewBox="0 0 39 41" fill="none" xmlns="http://www.w3.org/2000/svg">
<path opacity="0.4" d="M33.0747 17.1266H28.4119C24.5881 17.1266 21.4742 13.8823 21.4742 9.89838V5.04035C21.4742 4.11581 20.7482 3.35938 19.8608 3.35938H13.0199C8.05061 3.35938 4.0332 6.72133 4.0332 12.7224V27.6159C4.0332 33.617 8.05061 36.9789 13.0199 36.9789H25.7014C30.6707 36.9789 34.6881 33.617 34.6881 27.6159V18.8076C34.6881 17.883 33.9621 17.1266 33.0747 17.1266Z" fill="#42535C" fill-opacity="0.3"/>
<path d="M25.4926 3.71427C24.8311 3.02507 23.6855 3.49574 23.6855 4.4539V10.3205C23.6855 12.7747 25.6862 14.8087 28.1224 14.8087C29.6552 14.8255 31.7849 14.8255 33.6081 14.8255C34.5277 14.8255 35.0117 13.6993 34.3664 13.0269C32.043 10.5895 27.8804 6.20211 25.4926 3.71427Z" fill="#42535C" fill-opacity="0.3"/>
<path d="M21.7802 23.1152H12.0997C11.4382 23.1152 10.8896 22.5437 10.8896 21.8545C10.8896 21.1653 11.4382 20.5938 12.0997 20.5938H21.7802C22.4417 20.5938 22.9903 21.1653 22.9903 21.8545C22.9903 22.5437 22.4417 23.1152 21.7802 23.1152Z" fill="#42535C" fill-opacity="0.7"/>
<path d="M18.5534 29.834H12.0997C11.4382 29.834 10.8896 29.2624 10.8896 28.5732C10.8896 27.884 11.4382 27.3125 12.0997 27.3125H18.5534C19.2149 27.3125 19.7634 27.884 19.7634 28.5732C19.7634 29.2624 19.2149 29.834 18.5534 29.834Z" fill="#42535C" fill-opacity="0.7"/>
</svg>
