<svg width="53" height="53" viewBox="0 0 53 53" fill="none" xmlns="http://www.w3.org/2000/svg">
<rect x="0.160156" y="0.5" width="52" height="52" rx="26" fill="#004D71" fill-opacity="0.1"/>
<path d="M39.4948 26.4993C39.4948 19.1393 33.5215 13.166 26.1615 13.166C18.8015 13.166 12.8281 19.1393 12.8281 26.4993C12.8281 33.8593 18.8015 39.8327 26.1615 39.8327" stroke="#004D71" stroke-width="1.5" stroke-linecap="round" stroke-linejoin="round"/>
<path d="M20.8276 14.5H22.1609C19.5609 22.2867 19.5609 30.7133 22.1609 38.5H20.8276" stroke="#004D71" stroke-width="1.5" stroke-linecap="round" stroke-linejoin="round"/>
<path d="M30.1602 14.5C31.4535 18.3933 32.1068 22.4467 32.1068 26.5" stroke="#004D71" stroke-width="1.5" stroke-linecap="round" stroke-linejoin="round"/>
<path d="M14.1602 31.8333V30.5C18.0535 31.7933 22.1068 32.4467 26.1602 32.4467" stroke="#004D71" stroke-width="1.5" stroke-linecap="round" stroke-linejoin="round"/>
<path d="M14.1602 22.4988C21.9468 19.8988 30.3735 19.8988 38.1602 22.4988" stroke="#004D71" stroke-width="1.5" stroke-linecap="round" stroke-linejoin="round"/>
<path d="M36.1611 30.0994C35.6678 29.9527 35.1078 29.8594 34.4945 29.8594C31.7345 29.8594 29.5078 32.0994 29.5078 34.846C29.5078 37.606 31.7478 39.8327 34.4945 39.8327C37.2411 39.8327 39.4811 37.5927 39.4811 34.846C39.4811 33.8194 39.1744 32.8593 38.6411 32.0727" stroke="#004D71" stroke-width="1.5" stroke-linecap="round" stroke-linejoin="round"/>
<path d="M36.8815 30.2328L35.2148 28.3262" stroke="#004D71" stroke-width="1.5" stroke-linecap="round" stroke-linejoin="round"/>
<path d="M36.8803 30.2324L34.9336 31.6458" stroke="#004D71" stroke-width="1.5" stroke-linecap="round" stroke-linejoin="round"/>
</svg>
