<svg width="25" height="24" viewBox="0 0 25 24" fill="none" xmlns="http://www.w3.org/2000/svg">
<path d="M12.5019 16.3299C10.1119 16.3299 8.17188 14.3899 8.17188 11.9999C8.17188 9.60992 10.1119 7.66992 12.5019 7.66992C14.8919 7.66992 16.8319 9.60992 16.8319 11.9999C16.8319 14.3899 14.8919 16.3299 12.5019 16.3299ZM12.5019 9.16992C10.9419 9.16992 9.67188 10.4399 9.67188 11.9999C9.67188 13.5599 10.9419 14.8299 12.5019 14.8299C14.0619 14.8299 15.3319 13.5599 15.3319 11.9999C15.3319 10.4399 14.0619 9.16992 12.5019 9.16992Z" fill="#004D71"/>
<path d="M12.4981 21.0205C8.73812 21.0205 5.18813 18.8205 2.74812 15.0005C1.68813 13.3505 1.68813 10.6605 2.74812 9.00047C5.19812 5.18047 8.74813 2.98047 12.4981 2.98047C16.2481 2.98047 19.7981 5.18047 22.2381 9.00047C23.2981 10.6505 23.2981 13.3405 22.2381 15.0005C19.7981 18.8205 16.2481 21.0205 12.4981 21.0205ZM12.4981 4.48047C9.26813 4.48047 6.17813 6.42047 4.01813 9.81047C3.26813 10.9805 3.26813 13.0205 4.01813 14.1905C6.17813 17.5805 9.26813 19.5205 12.4981 19.5205C15.7281 19.5205 18.8181 17.5805 20.9781 14.1905C21.7281 13.0205 21.7281 10.9805 20.9781 9.81047C18.8181 6.42047 15.7281 4.48047 12.4981 4.48047Z" fill="#004D71"/>
</svg>
