<svg width="25" height="25" viewBox="0 0 25 25" fill="none" xmlns="http://www.w3.org/2000/svg">
<path d="M15.1858 19.5698C15.1858 20.1798 14.7858 20.9798 14.2758 21.2898L12.8658 22.1998C11.5558 23.0098 9.73578 22.0998 9.73578 20.4798V15.1298C9.73578 14.4198 9.33578 13.5098 8.92578 13.0098L5.08575 8.96976C4.57575 8.45976 4.17578 7.55977 4.17578 6.94977V4.62976C4.17578 3.41976 5.0858 2.50977 6.1958 2.50977H19.5358C20.6458 2.50977 21.5558 3.41975 21.5558 4.52975V6.74976C21.5558 7.55976 21.0458 8.56976 20.5458 9.06976" stroke="#004D71" stroke-width="1.5" stroke-miterlimit="10" stroke-linecap="round" stroke-linejoin="round"/>
<path d="M16.9383 17.0191C18.7056 17.0191 20.1383 15.5865 20.1383 13.8192C20.1383 12.0518 18.7056 10.6191 16.9383 10.6191C15.171 10.6191 13.7383 12.0518 13.7383 13.8192C13.7383 15.5865 15.171 17.0191 16.9383 17.0191Z" stroke="#004D71" stroke-width="1.5" stroke-linecap="round" stroke-linejoin="round"/>
<path d="M20.7383 17.6191L19.7383 16.6191" stroke="#004D71" stroke-width="1.5" stroke-linecap="round" stroke-linejoin="round"/>
</svg>
