<svg width="23" height="25" viewBox="0 0 23 25" fill="none" xmlns="http://www.w3.org/2000/svg">
<path d="M11.9646 11.9657H12.3404L12.4449 11.6047C12.8341 10.2598 14.072 9.27601 15.5338 9.27601C16.9953 9.27601 18.2337 10.2601 18.6226 11.6046L18.727 11.9657H19.1029H22.3672V13.0347H19.1031H18.7273L18.6228 13.3957C18.2336 14.7405 16.9957 15.7244 15.5338 15.7244C14.072 15.7244 12.8341 14.7403 12.4449 13.3956L12.3404 13.0347H11.9646H1.36724V11.9657H11.9646ZM17.6865 12.5001V12.5C17.6865 11.3117 16.7222 10.3447 15.5338 10.3447C14.3455 10.3447 13.3812 11.3117 13.3812 12.5C13.3812 13.6883 14.3455 14.6553 15.5338 14.6553C16.7218 14.6553 17.6863 13.6882 17.6865 12.5001ZM4.63127 20.2413H5.00708L5.11156 19.8803C5.5008 18.5355 6.73869 17.5516 8.20054 17.5516C9.66203 17.5516 10.9005 18.5357 11.2895 19.8803L11.394 20.2413H11.7698H22.3671V21.3103H11.7698H11.394L11.2895 21.6713C10.9003 23.0162 9.66239 24 8.20054 24C6.73872 24 5.50079 23.0159 5.11155 21.6713L5.00706 21.3103H4.63127H1.36719V20.2413H4.63127ZM11.2893 3.32875L11.3938 3.68972H11.7696H22.3671V4.75866H11.7698H11.394L11.2895 5.11965C10.9003 6.46454 9.66239 7.44838 8.20054 7.44838C6.73872 7.44838 5.50079 6.46432 5.11155 5.11963L5.00706 4.75866H4.63127H1.36719V3.68972H4.63107H5.00688L5.11136 3.32873C5.5006 1.98384 6.73849 1 8.20034 1C9.66216 1 10.9001 1.98406 11.2893 3.32875ZM6.04786 20.7756C6.04786 21.9639 7.01225 22.9309 8.20054 22.9309C9.38842 22.9309 10.3532 21.964 10.3532 20.7756C10.3532 19.5873 9.38889 18.6204 8.20054 18.6204C7.01219 18.6204 6.04786 19.5873 6.04786 20.7756ZM6.04786 4.22419C6.04786 5.4125 7.01225 6.37944 8.20054 6.37944C9.38842 6.37944 10.3532 5.41257 10.3532 4.22419C10.3532 3.03589 9.38889 2.06894 8.20054 2.06894C7.01219 2.06894 6.04786 3.03589 6.04786 4.22419Z" fill="#004D71" stroke="#004D71"/>
</svg>
