<svg width="53" height="53" viewBox="0 0 53 53" fill="none" xmlns="http://www.w3.org/2000/svg">
<rect x="0.132812" y="0.5" width="52" height="52" rx="26" fill="#004D71" fill-opacity="0.1"/>
<path d="M22.1328 35.6733C23.3595 36.2067 24.7061 36.5 26.1328 36.5C31.6528 36.5 36.1328 32.02 36.1328 26.5C36.1328 25.0733 35.8395 23.7267 35.3061 22.5" stroke="#004D71" stroke-width="1.5" stroke-linecap="round" stroke-linejoin="round"/>
<path d="M33.0795 19.3C31.2795 17.5667 28.8261 16.5 26.1328 16.5C20.6128 16.5 16.1328 20.98 16.1328 26.5C16.1328 29.18 17.1861 31.62 18.9061 33.42" stroke="#004D71" stroke-width="1.5" stroke-linecap="round" stroke-linejoin="round"/>
<path d="M26.1328 15.8327V13.166" stroke="#004D71" stroke-width="1.5" stroke-linecap="round" stroke-linejoin="round"/>
<path d="M15.4674 26.5H12.8008" stroke="#004D71" stroke-width="1.5" stroke-linecap="round" stroke-linejoin="round"/>
<path d="M26.1328 37.166V39.8327" stroke="#004D71" stroke-width="1.5" stroke-linecap="round" stroke-linejoin="round"/>
<path d="M36.8008 26.5H39.4674" stroke="#004D71" stroke-width="1.5" stroke-linecap="round" stroke-linejoin="round"/>
<path d="M28.9595 23.6733L23.3061 29.3267C22.5861 28.6067 22.1328 27.6067 22.1328 26.5C22.1328 24.2867 23.9195 22.5 26.1328 22.5C27.2395 22.5 28.2395 22.9533 28.9595 23.6733Z" stroke="#004D71" stroke-width="1.5" stroke-linecap="round" stroke-linejoin="round"/>
<path d="M39.4674 13.166L12.8008 39.8327" stroke="#004D71" stroke-width="1.5" stroke-linecap="round" stroke-linejoin="round"/>
</svg>
