<svg width="29" height="29" viewBox="0 0 29 29" fill="none" xmlns="http://www.w3.org/2000/svg">
<path d="M25.8902 7.16107L17.7302 1.4519C15.506 -0.10643 12.0918 -0.02143 9.95267 1.63607L2.85517 7.17524C1.4385 8.28024 0.319336 10.5469 0.319336 12.3319V22.1069C0.319336 25.7194 3.25184 28.6661 6.86434 28.6661H22.136C25.7485 28.6661 28.681 25.7336 28.681 22.1211V12.5161C28.681 10.6036 27.4485 8.2519 25.8902 7.16107ZM15.5627 22.9994C15.5627 23.5802 15.081 24.0619 14.5002 24.0619C13.9193 24.0619 13.4377 23.5802 13.4377 22.9994V18.7494C13.4377 18.1686 13.9193 17.6869 14.5002 17.6869C15.081 17.6869 15.5627 18.1686 15.5627 18.7494V22.9994Z" fill="white"/>
</svg>
