<svg width="58" height="57" viewBox="0 0 58 57" fill="none" xmlns="http://www.w3.org/2000/svg">
<path d="M46.5009 18.8093V31.0406C46.5009 38.3556 42.3209 41.4905 36.0509 41.4905H15.1746C14.1058 41.4905 13.0846 41.3956 12.1346 41.1819C11.5408 41.0869 10.9709 40.9206 10.4484 40.7306C6.88587 39.4006 4.72461 36.3131 4.72461 31.0406V18.8093C4.72461 11.4943 8.90459 8.35938 15.1746 8.35938H36.0509C41.3709 8.35938 45.1946 10.6156 46.2159 15.7694C46.3821 16.7194 46.5009 17.693 46.5009 18.8093Z" stroke="#004D71" stroke-width="1.5" stroke-miterlimit="10" stroke-linecap="round" stroke-linejoin="round"/>
<path d="M53.628 25.9345V38.1658C53.628 45.4808 49.448 48.6157 43.178 48.6157H22.3017C20.5442 48.6157 18.953 48.3783 17.5755 47.8558C14.7492 46.8108 12.8255 44.6496 12.1367 41.1821C13.0867 41.3958 14.108 41.4907 15.1767 41.4907H36.053C42.323 41.4907 46.503 38.3558 46.503 31.0408V18.8095C46.503 17.6932 46.408 16.6958 46.218 15.7695C50.7305 16.7195 53.628 19.902 53.628 25.9345Z" stroke="#004D71" stroke-width="1.5" stroke-miterlimit="10" stroke-linecap="round" stroke-linejoin="round"/>
<path d="M25.5972 31.208C29.06 31.208 31.8672 28.4008 31.8672 24.938C31.8672 21.4752 29.06 18.668 25.5972 18.668C22.1344 18.668 19.3271 21.4752 19.3271 24.938C19.3271 28.4008 22.1344 31.208 25.5972 31.208Z" stroke="#004D71" stroke-width="1.5" stroke-miterlimit="10" stroke-linecap="round" stroke-linejoin="round"/>
<path d="M12.0156 19.7109V30.161" stroke="#004D71" stroke-width="1.5" stroke-miterlimit="10" stroke-linecap="round" stroke-linejoin="round"/>
<path d="M39.1895 19.7109V30.161" stroke="#004D71" stroke-width="1.5" stroke-miterlimit="10" stroke-linecap="round" stroke-linejoin="round"/>
</svg>
