<svg width="64" height="61" viewBox="0 0 64 61" fill="none" xmlns="http://www.w3.org/2000/svg">
<ellipse cx="32.0299" cy="30.5" rx="31.11" ry="30.5" fill="#DEE9EE"/>
<path d="M30.8861 26.7566C30.7319 26.7412 30.5469 26.7412 30.3773 26.7566C26.7082 26.6333 23.7944 23.627 23.7944 19.927C23.7944 16.1499 26.8469 13.082 30.6394 13.082C34.4165 13.082 37.4844 16.1499 37.4844 19.927C37.469 23.627 34.5553 26.6333 30.8861 26.7566Z" stroke="#004D71" stroke-width="1.5" stroke-linecap="round" stroke-linejoin="round"/>
<path d="M23.178 32.446C19.4472 34.9435 19.4472 39.0135 23.178 41.4956C27.4176 44.3323 34.3705 44.3323 38.6101 41.4956C42.3409 38.9981 42.3409 34.9281 38.6101 32.446C34.3859 29.6248 27.433 29.6248 23.178 32.446Z" stroke="#004D71" stroke-width="1.5" stroke-linecap="round" stroke-linejoin="round"/>
</svg>
