<svg width="52" height="53" viewBox="0 0 52 53" fill="none" xmlns="http://www.w3.org/2000/svg">
<rect y="0.5" width="52" height="52" rx="26" fill="#004D71" fill-opacity="0.1"/>
<path d="M14.667 39.8346V17.168C14.667 14.5013 16.4537 13.168 18.667 13.168H29.3337C31.547 13.168 33.3337 14.5013 33.3337 17.168V39.8346H14.667Z" stroke="#004D71" stroke-width="1.5" stroke-linecap="round" stroke-linejoin="round"/>
<path d="M12.667 39.832H35.3337" stroke="#004D71" stroke-width="1.5" stroke-linecap="round" stroke-linejoin="round"/>
<path d="M21.187 23.8323H26.827C28.2137 23.8323 29.347 23.1657 29.347 21.3123V19.6723C29.347 17.819 28.2137 17.1523 26.827 17.1523H21.187C19.8003 17.1523 18.667 17.819 18.667 19.6723V21.3123C18.667 23.1657 19.8003 23.8323 21.187 23.8323Z" stroke="#004D71" stroke-width="1.5" stroke-linecap="round" stroke-linejoin="round"/>
<path d="M18.667 27.832H22.667" stroke="#004D71" stroke-width="1.5" stroke-linecap="round" stroke-linejoin="round"/>
<path d="M33.333 31.8467L39.333 31.8333V23.8333L36.6663 22.5" stroke="#004D71" stroke-width="1.5" stroke-linecap="round" stroke-linejoin="round"/>
</svg>
