<svg width="52" height="53" viewBox="0 0 52 53" fill="none" xmlns="http://www.w3.org/2000/svg">
<rect y="0.5" width="52" height="52" rx="26" fill="#004D71" fill-opacity="0.1"/>
<path d="M11.333 39.834H40.6663" stroke="#004D71" stroke-width="1.5" stroke-miterlimit="10" stroke-linecap="round" stroke-linejoin="round"/>
<path d="M36.373 39.8471V33.9004" stroke="#004D71" stroke-width="1.5" stroke-miterlimit="10" stroke-linecap="round" stroke-linejoin="round"/>
<path d="M36.4001 25.0195C34.7735 25.0195 33.4668 26.3262 33.4668 27.9529V30.9795C33.4668 32.6062 34.7735 33.9128 36.4001 33.9128C38.0268 33.9128 39.3335 32.6062 39.3335 30.9795V27.9529C39.3335 26.3262 38.0268 25.0195 36.4001 25.0195Z" stroke="#004D71" stroke-width="1.5" stroke-miterlimit="10" stroke-linecap="round" stroke-linejoin="round"/>
<path d="M12.7998 39.8337V18.5404C12.7998 15.8604 14.1332 14.5137 16.7865 14.5137H25.0932C27.7465 14.5137 29.0665 15.8604 29.0665 18.5404V39.8337" stroke="#004D71" stroke-width="1.5" stroke-miterlimit="10" stroke-linecap="round" stroke-linejoin="round"/>
<path d="M17.7334 21.5H24.3334" stroke="#004D71" stroke-width="1.5" stroke-miterlimit="10" stroke-linecap="round" stroke-linejoin="round"/>
<path d="M17.7334 26.5H24.3334" stroke="#004D71" stroke-width="1.5" stroke-miterlimit="10" stroke-linecap="round" stroke-linejoin="round"/>
<path d="M21 39.834V34.834" stroke="#004D71" stroke-width="1.5" stroke-miterlimit="10" stroke-linecap="round" stroke-linejoin="round"/>
</svg>
