<svg width="52" height="53" viewBox="0 0 52 53" fill="none" xmlns="http://www.w3.org/2000/svg">
<rect y="0.5" width="52" height="52" rx="26" fill="#004D71" fill-opacity="0.1"/>
<path d="M17.2936 22.5013C19.8709 22.5013 21.9603 20.412 21.9603 17.8346C21.9603 15.2573 19.8709 13.168 17.2936 13.168C14.7163 13.168 12.627 15.2573 12.627 17.8346C12.627 20.412 14.7163 22.5013 17.2936 22.5013Z" stroke="#004D71" stroke-width="1.5"/>
<path d="M32.6266 30.5H36.6266C38.0933 30.5 39.2933 31.7 39.2933 33.1667V37.1667C39.2933 38.6333 38.0933 39.8333 36.6266 39.8333H32.6266C31.16 39.8333 29.96 38.6333 29.96 37.1667V33.1667C29.96 31.7 31.16 30.5 32.6266 30.5Z" stroke="#004D71" stroke-width="1.5"/>
<path d="M26.0003 17.168H29.5736C32.0403 17.168 33.1869 20.2213 31.3336 21.848L20.6803 31.168C18.8269 32.7813 19.9736 35.8346 22.4269 35.8346H26.0003" stroke="#004D71" stroke-width="1.5" stroke-linecap="round" stroke-linejoin="round"/>
<path d="M17.315 17.8346H17.3304" stroke="#004D71" stroke-width="2" stroke-linecap="round" stroke-linejoin="round"/>
<path d="M34.648 35.1667H34.6634" stroke="#004D71" stroke-width="2" stroke-linecap="round" stroke-linejoin="round"/>
</svg>
