<svg width="32" height="33" viewBox="0 0 32 33" fill="none" xmlns="http://www.w3.org/2000/svg">
<g clip-path="url(#clip0_379_49064)">
<path d="M16.1603 17.8193C16.067 17.8059 15.947 17.8059 15.8403 17.8193C13.4936 17.7393 11.627 15.8193 11.627 13.4593C11.627 11.0459 13.5736 9.08594 16.0003 9.08594C18.4136 9.08594 20.3736 11.0459 20.3736 13.4593C20.3603 15.8193 18.507 17.7393 16.1603 17.8193Z" stroke="white" stroke-width="2.4691" stroke-linecap="round" stroke-linejoin="round"/>
<path d="M24.987 26.6155C22.6137 28.7888 19.467 30.1088 16.0003 30.1088C12.5337 30.1088 9.38701 28.7888 7.01367 26.6155C7.14701 25.3621 7.94701 24.1355 9.37367 23.1755C13.027 20.7488 19.0003 20.7488 22.627 23.1755C24.0537 24.1355 24.8537 25.3621 24.987 26.6155Z" stroke="white" stroke-width="2.4691" stroke-linecap="round" stroke-linejoin="round"/>
<path d="M16.0003 30.112C23.3641 30.112 29.3337 24.1424 29.3337 16.7786C29.3337 9.41485 23.3641 3.44531 16.0003 3.44531C8.63653 3.44531 2.66699 9.41485 2.66699 16.7786C2.66699 24.1424 8.63653 30.112 16.0003 30.112Z" stroke="white" stroke-width="2.4691" stroke-linecap="round" stroke-linejoin="round"/>
</g>
<defs>
<clipPath id="clip0_379_49064">
<rect width="32" height="32" fill="white" transform="translate(0 0.777344)"/>
</clipPath>
</defs>
</svg>
