<svg width="101" height="100" viewBox="0 0 101 100" fill="none" xmlns="http://www.w3.org/2000/svg">
<path d="M35.4167 49.9993L45.4583 60.0827L65.5833 39.916" stroke="#4BC863" stroke-width="3.5" stroke-linecap="round" stroke-linejoin="round"/>
<path d="M45.2917 10.209C48.1667 7.75065 52.875 7.75065 55.7917 10.209L62.375 15.8757C63.625 16.959 65.9583 17.834 67.625 17.834H74.7083C79.125 17.834 82.75 21.459 82.75 25.8756V32.959C82.75 34.584 83.625 36.959 84.7083 38.209L90.375 44.7923C92.8333 47.6673 92.8333 52.3757 90.375 55.2923L84.7083 61.8757C83.625 63.1257 82.75 65.459 82.75 67.1257V74.209C82.75 78.6256 79.125 82.2506 74.7083 82.2506H67.625C66 82.2506 63.625 83.1256 62.375 84.209L55.7917 89.8756C52.9167 92.334 48.2083 92.334 45.2917 89.8756L38.7083 84.209C37.4583 83.1256 35.125 82.2506 33.4583 82.2506H26.25C21.8333 82.2506 18.2083 78.6256 18.2083 74.209V67.084C18.2083 65.459 17.3333 63.1257 16.2917 61.8757L10.6667 55.2507C8.24999 52.3757 8.24999 47.709 10.6667 44.834L16.2917 38.209C17.3333 36.959 18.2083 34.6256 18.2083 33.0006V25.834C18.2083 21.4173 21.8333 17.7923 26.25 17.7923H33.4583C35.0833 17.7923 37.4583 16.9173 38.7083 15.834L45.2917 10.209Z" stroke="#4BC863" stroke-width="3.5" stroke-linecap="round" stroke-linejoin="round"/>
</svg>
